<svg width="858" height="767" viewBox="0 0 858 767" fill="none" xmlns="http://www.w3.org/2000/svg">
<g clip-path="url(#clip0_1_2)">
<path d="M130.79 205.01C131.523 205.763 131.523 206.517 130.79 207.27C112.51 225.983 95.0533 243.867 78.42 260.92C72.58 266.9 69.58 273.01 75.97 279.8C81.4367 285.607 86.99 291.367 92.63 297.08C95.95 300.44 98.7767 302.607 101.11 303.58C110.5 307.48 116.63 302.29 123.85 295.19C134.75 284.45 145.37 273.53 155.71 262.43C155.814 262.318 155.94 262.229 156.08 262.168C156.219 262.106 156.37 262.074 156.523 262.073C156.675 262.072 156.827 262.103 156.967 262.162C157.108 262.222 157.235 262.31 157.34 262.42L165.59 271.06C166.187 271.689 166.52 272.52 166.52 273.38C166.673 296.353 166.757 319.393 166.77 342.5C166.79 374.18 169.63 405.79 175.03 437.01C183.45 485.61 199.58 530.88 221.63 574.01C221.782 574.305 221.844 574.638 221.808 574.968C221.773 575.299 221.641 575.612 221.43 575.87C220.137 577.47 218.683 579.12 217.07 580.82C198.75 600.173 180.423 619.52 162.09 638.86C159.963 641.1 158.897 643.063 158.89 644.75C158.797 671.777 158.803 698.82 158.91 725.88C158.93 731.18 159.357 734.713 160.19 736.48C162.07 740.473 165.933 741.997 171.78 741.05C186.993 738.583 219.5 733.187 269.3 724.86C275.96 723.75 277.24 721.65 282.26 716.21C291.007 706.737 299.543 697.143 307.87 687.43C307.898 687.396 307.933 687.367 307.972 687.347C308.011 687.327 308.054 687.315 308.098 687.312C308.143 687.309 308.187 687.315 308.228 687.331C308.27 687.346 308.308 687.369 308.34 687.4C337.2 715.307 368.663 739.027 402.73 758.56C409.137 762.233 414.377 764.56 418.45 765.54C438.65 770.38 453.95 759.78 470.22 749.72C498.767 732.06 524.93 711.423 548.71 687.81C548.751 687.769 548.801 687.738 548.855 687.717C548.909 687.696 548.966 687.686 549.024 687.688C549.082 687.69 549.139 687.703 549.192 687.728C549.244 687.752 549.291 687.787 549.33 687.83C559.417 698.963 569.537 710.043 579.69 721.07C581.517 723.057 583.03 724.143 584.23 724.33C617.497 729.637 650.743 735.07 683.97 740.63C692.61 742.07 698.83 739.52 698.83 729.5C698.837 701.88 698.817 674.257 698.77 646.63C698.77 644.08 697.95 641.35 696.37 639.65C685.997 628.45 667.337 608.847 640.39 580.84C638.81 579.193 637.387 577.363 636.12 575.35C636.032 575.212 635.981 575.054 635.972 574.889C635.963 574.724 635.997 574.559 636.07 574.41C643.81 559.037 650.897 543.37 657.33 527.41C682.16 465.83 692.12 397.53 691.82 332.25C691.733 312.25 691.757 292.493 691.89 272.98C691.896 272.05 692.262 271.158 692.91 270.49L700.75 262.39C700.83 262.306 700.927 262.238 701.034 262.192C701.141 262.145 701.256 262.121 701.373 262.12C701.489 262.119 701.605 262.142 701.713 262.186C701.821 262.231 701.918 262.297 702 262.38C714.093 274.707 726.293 287.047 738.6 299.4C743.54 304.353 749.2 305.89 755.58 304.01C759.4 302.88 762.02 300.44 764.81 297.56C771.623 290.513 776.62 285.323 779.8 281.99C788.28 273.08 786.88 268.17 778.46 259.59C761.527 242.357 744.33 224.917 726.87 207.27C726.17 206.563 726.117 205.807 726.71 205C727.823 203.487 729.267 201.833 731.04 200.04C759.593 171.007 788.223 142.053 816.93 113.18C818.003 112.093 818.743 111.477 819.15 111.33C860.56 96.08 872 42.66 837.84 13.66C810.25 -9.77 766.45 -1.34001 750.7 31.51C746.38 40.52 745.05 49.42 744.91 59.78C744.91 60.1333 744.77 60.42 744.49 60.64C742.93 61.8333 741.737 62.84 740.91 63.66C715.237 89.0733 689.243 115.19 662.93 142.01C662.317 142.637 661.707 142.637 661.1 142.01C643.493 124.043 625.53 106.053 607.21 88.04C599.48 80.43 590.19 83.24 583.25 90C577.657 95.44 572.13 100.963 566.67 106.57C557.4 116.07 559.76 121.83 568.62 130.71C581.533 143.643 594.393 156.49 607.2 169.25C607.392 169.446 607.5 169.708 607.502 169.981C607.504 170.254 607.399 170.515 607.21 170.71L575.25 203.48C575.134 203.599 574.99 203.688 574.831 203.737C574.672 203.786 574.503 203.794 574.34 203.76C573.553 203.593 572.777 203.39 572.01 203.15C529.683 190.07 490.077 171.287 453.19 146.8C446.623 142.447 440.09 138.033 433.59 133.56C430.697 131.567 427.967 131.49 425.4 133.33C381.67 164.68 334.54 189.82 283.78 204.15C283.413 204.25 283.097 204.163 282.83 203.89L250.68 171.13C249.74 170.17 249.753 169.22 250.72 168.28C265.167 154.307 279.473 140.093 293.64 125.64C296.347 122.873 297.383 119.573 296.75 115.74C296.07 111.65 293.28 108.65 290.32 105.68C286.72 102.067 283.113 98.4633 279.5 94.87C274.2 89.61 270.28 86.3867 267.74 85.2C260.887 82.0133 254.207 83.6833 247.7 90.21C230.76 107.203 213.67 124.303 196.43 141.51C196.285 141.655 196.113 141.771 195.923 141.85C195.734 141.928 195.53 141.969 195.325 141.969C195.12 141.969 194.916 141.928 194.727 141.85C194.537 141.771 194.365 141.655 194.22 141.51L113.25 60.48C112.73 59.96 112.477 59.3333 112.49 58.6C112.8 28.6 92.12 3.34999 61.67 0.509992C38.22 -1.67001 15.27 11.35 5.35 32.43C-7.81 60.42 3.67 95.12 31.99 108.32C35.66 110.04 39.16 110.86 42.07 113.87C71.8367 144.59 101.41 174.97 130.79 205.01Z" stroke="#AB8990" stroke-width="2.2"/>
<path d="M43.0227 90.0925C47.3402 91.8019 51.9567 92.6324 56.6087 92.5366C61.2608 92.4407 65.8572 91.4205 70.1356 89.534C74.414 87.6475 78.2905 84.9318 81.5439 81.5419C84.7973 78.1519 87.3638 74.1542 89.0969 69.7769C90.83 65.3996 91.6957 60.7285 91.6447 56.0303C91.5936 51.332 90.6268 46.6986 88.7994 42.3947C86.972 38.0908 84.3197 34.2005 80.9942 30.9461C77.6686 27.6917 73.7347 25.1369 69.4173 23.4275C65.0998 21.7181 60.4833 20.8876 55.8313 20.9834C51.1792 21.0793 46.5828 22.0995 42.3044 23.986C38.026 25.8725 34.1495 28.5882 30.8961 31.9781C27.6427 35.3681 25.0762 39.3658 23.3431 43.7431C21.61 48.1204 20.7443 52.7915 20.7953 57.4897C20.8464 62.188 21.8132 66.8213 23.6406 71.1253C25.468 75.4292 28.1203 79.3194 31.4458 82.5738C34.7714 85.8282 38.7052 88.3831 43.0227 90.0925Z" stroke="#375B7B" stroke-width="2.2"/>
<path d="M780.77 85.72C790.137 92.54 800.297 94.38 811.25 91.24C828.9 86.19 838.63 70.39 836.67 52.61C835.463 41.6433 829.91 32.9433 820.01 26.51" stroke="#365577" stroke-width="2.2"/>
<path d="M820.01 26.51C813.06 22.04 804.18 20.86 796.22 21.7C773.83 24.08 761.73 46.48 768.49 67.02C770.803 74.08 774.897 80.3133 780.77 85.72" stroke="#37647F" stroke-width="2.2"/>
<path d="M820.01 26.51C820.557 28.69 820.047 30.69 818.48 32.51C816.68 34.61 815.763 35.6867 815.73 35.74C813.723 38.48 811.36 41.04 808.64 43.42" stroke="#149EBF" stroke-width="2.2"/>
<path d="M808.64 43.42C797.5 36.32 783.43 43.89 783.36 57.08C783.32 63.88 786.55 69.29 793.05 73.31" stroke="#37647F" stroke-width="2.2"/>
<path d="M793.05 73.31C789.743 77.33 786.05 80.86 781.97 83.9C781.77 84.0467 781.697 84.24 781.75 84.48C781.777 84.6133 781.787 84.7533 781.78 84.9C781.767 85.1667 781.66 85.36 781.46 85.48C781.287 85.5867 781.057 85.6667 780.77 85.72" stroke="#149EBF" stroke-width="2.2"/>
<path d="M793.05 73.31C811.27 81.61 826.89 56.1 808.64 43.42" stroke="#365577" stroke-width="2.2"/>
<path d="M90.33 99.23C84.6967 104.65 78.1466 108.7 70.68 111.38C70.5878 111.413 70.5048 111.467 70.438 111.538C70.3712 111.609 70.3225 111.696 70.296 111.79C70.2696 111.884 70.2661 111.983 70.2859 112.079C70.3058 112.175 70.3483 112.264 70.41 112.34C71.3433 113.487 72.3567 114.64 73.45 115.8C96.69 140.467 120.67 165.12 145.39 189.76C145.552 189.922 145.745 190.051 145.958 190.138C146.17 190.226 146.397 190.27 146.627 190.269C146.857 190.268 147.084 190.222 147.295 190.133C147.507 190.044 147.699 189.914 147.86 189.75L163.12 174.34" stroke="#375B7B" stroke-width="2.2"/>
<path d="M163.12 174.34L179.16 158.09C179.395 157.851 179.526 157.528 179.524 157.193C179.522 156.858 179.388 156.537 179.15 156.3L105.49 82.82C105.402 82.7326 105.295 82.666 105.177 82.625C105.06 82.5839 104.936 82.5696 104.813 82.5831C104.69 82.5965 104.572 82.6374 104.468 82.7026C104.363 82.7678 104.275 82.8558 104.21 82.96C100.463 88.9667 95.8367 94.39 90.33 99.23" stroke="#37647F" stroke-width="2.2"/>
<path d="M163.12 174.34C161.82 172.547 160.54 170.723 159.28 168.87C157.933 166.903 156.523 165.19 155.05 163.73C150.523 159.243 145.84 154.93 141 150.79C136.99 147.35 132.84 143.04 129.4 139.44C122.5 132.227 115.51 125.103 108.43 118.07C102.72 112.4 96.59 105.36 90.33 99.23" stroke="#15A4C4" stroke-width="2.2"/>
<path d="M693.66 173.66L709.49 190.07C710.237 190.85 710.987 190.853 711.74 190.08C736.573 164.76 761.077 139.65 785.25 114.75C786.177 113.797 786.873 112.96 787.34 112.24C787.391 112.159 787.423 112.068 787.435 111.974C787.446 111.879 787.436 111.783 787.405 111.694C787.374 111.604 787.324 111.523 787.257 111.456C787.19 111.39 787.109 111.34 787.02 111.31C779.267 108.69 772.383 104.577 766.37 98.97" stroke="#365577" stroke-width="2.2"/>
<path d="M766.37 98.97C761.457 94.15 757.043 89.0267 753.13 83.6C752.965 83.3643 752.714 83.2029 752.43 83.1506C752.146 83.0982 751.851 83.1591 751.61 83.32C749.67 84.63 748.6 85.98 747.06 87.52C725.64 108.947 704.21 130.363 682.77 151.77C681.217 153.323 679.743 155.013 678.35 156.84C678.26 156.962 678.216 157.112 678.225 157.264C678.234 157.416 678.296 157.559 678.4 157.67L693.66 173.66" stroke="#37647F" stroke-width="2.2"/>
<path d="M766.37 98.97C751.877 113.357 737.463 127.783 723.13 142.25C723.11 142.27 718.593 147.02 709.58 156.5C704.78 161.553 699.767 166.393 694.54 171.02C694.415 171.13 694.316 171.266 694.25 171.418C694.185 171.57 694.154 171.735 694.16 171.9C694.187 172.673 694.02 173.26 693.66 173.66" stroke="#149EBF" stroke-width="2.2"/>
<path d="M270.36 117.5C269.37 114.22 266.06 110.82 263.47 108.97C261.37 107.47 259.243 107.763 257.09 109.85C203.11 162.06 150.68 215.8 98.51 269.83C98.327 270.018 98.2223 270.268 98.2168 270.531C98.2112 270.795 98.3052 271.051 98.48 271.25L106.3 280.03C106.54 280.3 106.872 280.469 107.23 280.504C107.588 280.539 107.945 280.438 108.23 280.22C109.49 279.267 110.687 278.217 111.82 277.07C146.887 241.683 181.98 206.327 217.1 171C233.58 154.44 250.45 138.24 267.09 121.84C268.47 120.487 269.503 119.363 270.19 118.47C270.292 118.334 270.36 118.175 270.39 118.006C270.42 117.838 270.409 117.664 270.36 117.5Z" stroke="#375B7B" stroke-width="2.2"/>
<path d="M600.35 110.16C597.47 107.25 596.36 107.13 593.28 109.75C590.7 111.95 588.587 114.45 586.94 117.25C586.798 117.486 586.738 117.762 586.769 118.037C586.8 118.311 586.919 118.569 587.11 118.77C589.017 120.79 591.017 122.827 593.11 124.88C645.463 176.273 697.503 227.993 749.23 280.04C749.577 280.386 750.044 280.587 750.534 280.602C751.025 280.617 751.502 280.445 751.87 280.12C754.81 277.513 757.3 274.533 759.34 271.18C759.48 270.948 759.539 270.676 759.508 270.406C759.478 270.137 759.359 269.885 759.17 269.69C734.143 243.91 709.06 218.34 683.92 192.98C679.593 188.62 674.853 183.927 669.7 178.9C646.393 156.18 623.277 133.267 600.35 110.16Z" stroke="#375B7B" stroke-width="2.2"/>
<path d="M429.16 156.66C428.607 156.767 428.17 156.933 427.85 157.16C375.72 194.05 315.09 221.24 252.27 233.35C242.64 235.2 236.67 226.91 240.17 217.86" stroke="#37647F" stroke-width="2.2"/>
<path d="M240.17 217.86C245.877 215.14 252.137 213.127 258.95 211.82C259.077 211.795 259.195 211.738 259.294 211.654C259.393 211.571 259.47 211.464 259.517 211.344C259.563 211.223 259.579 211.093 259.562 210.965C259.545 210.836 259.496 210.714 259.42 210.61C258.44 209.31 257.273 207.963 255.92 206.57C248.74 199.203 241.563 191.917 234.39 184.71C234.335 184.654 234.27 184.61 234.198 184.58C234.126 184.55 234.048 184.534 233.97 184.534C233.892 184.534 233.814 184.55 233.742 184.58C233.67 184.61 233.605 184.654 233.55 184.71L175.44 242.33C175.385 242.383 175.342 242.447 175.312 242.518C175.283 242.589 175.267 242.665 175.267 242.742C175.267 242.819 175.283 242.896 175.312 242.968C175.342 243.039 175.385 243.105 175.44 243.16L184.49 252.11" stroke="#887F9B" stroke-width="2.2"/>
<path d="M184.49 252.11C185.86 254.41 186.97 256.07 187.15 258.81C187.41 262.643 187.537 265.457 187.53 267.25C187.297 312.023 187.437 341.023 187.95 354.25C191.26 438.9 212.4 524.49 259.81 595.52C280.6 626.67 302.39 653.66 330 679.27C350.72 698.483 374.12 716.28 400.2 732.66C406.3 736.49 413.97 740.97 419.49 743.76C423.363 745.707 427.107 746.393 430.72 745.82" stroke="#37647F" stroke-width="2.2"/>
<path d="M430.72 745.82C434.847 745.233 438.24 744.173 440.9 742.64C473.333 723.967 503.303 701.94 530.81 676.56C540.31 667.8 549.94 657.76 559.7 646.44C580.74 622.03 600.27 595.78 615.29 567.94C638.103 525.673 653.703 480.777 662.09 433.25C667.39 403.26 670.75 372.47 670.75 341.99C670.743 309.617 670.82 283.37 670.98 263.25C671.007 260.157 671.757 257.083 673.23 254.03" stroke="#365577" stroke-width="2.2"/>
<path d="M673.23 254.03C675.843 250.237 678.883 247.017 682.35 244.37C682.479 244.27 682.586 244.144 682.662 244C682.739 243.855 682.783 243.696 682.793 243.533C682.802 243.37 682.776 243.206 682.717 243.054C682.658 242.902 682.567 242.764 682.45 242.65L623.68 185.07C623.563 184.957 623.406 184.895 623.243 184.897C623.08 184.899 622.925 184.964 622.81 185.08L598.41 210.22C598.321 210.311 598.258 210.425 598.228 210.549C598.199 210.673 598.204 210.803 598.243 210.925C598.282 211.046 598.354 211.155 598.45 211.239C598.547 211.322 598.664 211.378 598.79 211.4C605.223 212.607 611.297 214.583 617.01 217.33" stroke="#97869A" stroke-width="2.2"/>
<path d="M617.01 217.33C621.33 228.24 614.15 234.91 603.74 232.72C541.65 219.65 484.12 193.2 431.66 157.31C431 156.863 430.167 156.647 429.16 156.66" stroke="#365577" stroke-width="2.2"/>
<path d="M617.01 217.33C626.243 218.943 635.167 221.033 643.78 223.6C655.94 227.24 663.07 236.98 671.24 247.26C672.533 248.887 673.197 251.143 673.23 254.03" stroke="#74C0DB" stroke-width="2.2"/>
<path d="M430.72 745.82C429.867 736.507 429.69 727.63 430.19 719.19" stroke="#149EBF" stroke-width="2.2"/>
<path d="M430.19 719.19C431.883 717.79 433.603 716.613 435.35 715.66C438.657 713.853 440.33 712.94 440.37 712.92C477.48 689.81 515.48 660.33 545.27 625.78C574.44 591.95 598.05 553.35 614.12 511.69C623.413 487.597 630.527 463.777 635.46 440.23C640.447 416.437 643.973 391.267 646.04 364.72C646.513 358.707 646.813 352.053 646.94 344.76C647.38 319.433 647.53 294.09 647.39 268.73C647.37 264.763 645.273 262.527 641.1 262.02C613.38 258.633 585.183 253.53 556.51 246.71C527.183 239.743 497.71 228.147 468.09 211.92C457.39 206.06 444.72 198.17 430.08 188.25" stroke="#365577" stroke-width="2.2"/>
<path d="M430.08 188.25C429.64 185.83 429.54 183.207 429.78 180.38C430.47 172.36 429.9 164.68 429.16 156.66" stroke="#149EBF" stroke-width="2.2"/>
<path d="M430.08 188.25C393.12 214.27 352.897 233.337 309.41 245.45C303.61 247.063 297.137 248.657 289.99 250.23C265.87 255.53 241.533 259.58 216.98 262.38C213.353 262.793 211.51 264.827 211.45 268.48C210.99 295.707 211.223 322.073 212.15 347.58C212.92 368.65 215.36 391.25 218.06 410.5C225.62 464.42 243.43 516.17 269.8 564.25C298.38 616.36 340.74 660.25 389.54 693.95C403.953 703.903 417.503 712.317 430.19 719.19" stroke="#37647F" stroke-width="2.2"/>
<path d="M184.49 252.11C186.603 247.857 189.25 243.8 192.43 239.94C199.39 231.49 204.45 226.3 214.52 223.52C224.42 220.78 232.97 218.893 240.17 217.86" stroke="#66C8E3" stroke-width="2.2"/>
<path d="M242.82 707.19L262.34 704.05C263.768 703.823 265.084 703.139 266.09 702.1C274.47 693.467 282.867 684.52 291.28 675.26C292.027 674.44 292.61 673.65 293.03 672.89C293.21 672.557 293.17 672.253 292.91 671.98C285.617 664.373 278.603 656.307 271.87 647.78" stroke="#887F9B" stroke-width="2.2"/>
<path d="M271.87 647.78L251.86 621.98" stroke="#7D6F8C" stroke-width="2.2"/>
<path d="M251.86 621.98C247.173 615.167 242.597 608.313 238.13 601.42C236.643 599.12 235.09 597.103 233.47 595.37C233.382 595.275 233.275 595.2 233.156 595.148C233.037 595.097 232.908 595.07 232.778 595.07C232.648 595.07 232.519 595.097 232.399 595.148C232.279 595.2 232.17 595.275 232.08 595.37C215.913 612.67 199.8 629.717 183.74 646.51C180.08 650.35 180.63 652.14 180.6 658.03C180.5 677.437 180.483 696.93 180.55 716.51C180.55 716.87 180.73 717.023 181.09 716.97L242.82 707.19" stroke="#97869A" stroke-width="2.2"/>
<path d="M251.86 621.98L250.19 621.93C250.045 621.927 249.9 621.953 249.764 622.008C249.629 622.063 249.505 622.145 249.4 622.25C235.313 636.483 221.303 650.793 207.37 665.18C206.45 666.13 205.75 668.2 205.68 669.51C205.327 675.723 204.567 681.833 203.4 687.84C203.38 687.942 203.384 688.047 203.413 688.147C203.442 688.247 203.494 688.338 203.566 688.414C203.637 688.489 203.726 688.546 203.824 688.581C203.922 688.615 204.027 688.625 204.13 688.61C213.763 687.35 223.467 686.487 233.24 686.02C234.24 685.98 235.02 685.8 235.8 685.06C244.327 676.987 252.553 668.63 260.48 659.99" stroke="#BBDAF0" stroke-width="2.2"/>
<path d="M260.48 659.99C261.267 660.177 261.5 660.513 261.18 661C260.313 662.327 259.427 663.647 258.52 664.96C257.68 666.173 256.66 667.38 255.46 668.58C251.1 672.953 246.953 677.52 243.02 682.28C239.84 686.11 238.56 687.24 239.19 691.99C240.05 698.457 241.26 703.523 242.82 707.19" stroke="#C6EAFF" stroke-width="2.2"/>
<path d="M271.87 647.78L260.48 659.99" stroke="#ABD3F0" stroke-width="2.2"/>
<path d="M606.38 621.09C600.013 630.21 593.16 639.163 585.82 647.95" stroke="#7D6F8C" stroke-width="2.2"/>
<path d="M585.82 647.95C579.3 656.177 572.2 664.187 564.52 671.98C564.267 672.233 564.243 672.51 564.45 672.81C565.39 674.183 566.43 675.473 567.57 676.68C575.883 685.513 584.13 694.177 592.31 702.67C592.836 703.209 593.519 703.566 594.26 703.69L676.12 716.85C676.212 716.864 676.307 716.859 676.397 716.833C676.487 716.808 676.571 716.763 676.642 716.702C676.713 716.641 676.77 716.566 676.81 716.481C676.849 716.396 676.87 716.304 676.87 716.21C676.79 696.05 676.8 675.853 676.9 655.62C676.91 653.37 677.27 650.71 675.75 649.01C660.68 632.23 644.63 616.26 629.1 599.89C627.553 598.257 625.993 596.743 624.42 595.35C624.366 595.303 624.302 595.267 624.233 595.246C624.164 595.225 624.092 595.218 624.021 595.227C623.951 595.235 623.883 595.259 623.822 595.295C623.761 595.332 623.71 595.382 623.67 595.44L606.38 621.09" stroke="#887F9B" stroke-width="2.2"/>
<path d="M585.82 647.95C597.313 660.17 609.193 672.033 621.46 683.54C623 684.987 624.263 685.74 625.25 685.8C634.85 686.387 644.36 687.31 653.78 688.57C653.853 688.58 653.928 688.573 653.997 688.549C654.067 688.525 654.131 688.485 654.183 688.431C654.235 688.378 654.275 688.313 654.299 688.242C654.322 688.171 654.33 688.095 654.32 688.02C653.393 681.853 652.68 675.667 652.18 669.46C651.87 665.56 648.26 662.53 644.84 659.16C634.2 648.633 623.633 638.033 613.14 627.36C611.08 625.26 608.827 623.17 606.38 621.09" stroke="#ABD3F0" stroke-width="2.2"/>
<path d="M57.4806 74.6598C59.6119 74.671 61.7247 74.2405 63.6983 73.393C65.6719 72.5455 67.4676 71.2975 68.983 69.7203C70.4984 68.1431 71.7037 66.2676 72.5302 64.2009C73.3567 62.1341 73.7881 59.9166 73.7998 57.675C73.8116 55.4334 73.4034 53.2115 72.5986 51.1362C71.7938 49.0609 70.6082 47.1729 69.1094 45.5799C67.6107 43.987 65.8281 42.7202 63.8635 41.8521C61.8989 40.9839 59.7907 40.5314 57.6594 40.5202C55.5281 40.509 53.4153 40.9395 51.4417 41.787C49.4681 42.6346 47.6724 43.8825 46.157 45.4597C44.6416 47.0369 43.4363 48.9124 42.6098 50.9791C41.7834 53.0459 41.3519 55.2634 41.3402 57.505C41.3285 59.7466 41.7366 61.9685 42.5414 64.0438C43.3462 66.1191 44.5318 68.0071 46.0306 69.6001C47.5294 71.193 49.3119 72.4598 51.2765 73.3279C53.2411 74.1961 55.3493 74.6486 57.4806 74.6598Z" stroke="#375B7B" stroke-width="2.2"/>
<path d="M427.53 214.16C394.303 236.513 359.03 253.1 321.71 263.92C298.917 270.527 274.157 275.817 247.43 279.79" stroke="#AA7042" stroke-width="2.2"/>
<path d="M247.43 279.79L230.04 281.96C229.912 281.977 229.795 282.039 229.71 282.135C229.625 282.231 229.579 282.353 229.58 282.48C229.74 331.54 230.81 380.03 239.44 428.5C247.3 472.66 262.743 515.17 285.77 556.03C297.35 576.57 311.52 595.71 327.3 613.23C356.58 645.75 390.123 673.047 427.93 695.12C428.737 695.593 429.69 695.477 430.79 694.77C448.817 683.163 463.677 672.86 475.37 663.86C498.93 645.73 521.22 624.99 540.1 602.01C586.09 546.04 614.23 475.92 623.49 403.91C625.76 386.28 628.47 365.45 628.94 348C629.507 326.673 629.79 304.913 629.79 282.72C629.79 282 629.433 281.593 628.72 281.5L608.72 278.97" stroke="#AA5235" stroke-width="2.2"/>
<path d="M608.72 278.97C591.88 276.297 574.727 272.87 557.26 268.69C525.86 261.17 495.873 249.91 467.3 234.91C456.027 228.99 443.86 221.897 430.8 213.63C429.47 212.79 428.57 213.16 427.53 214.16" stroke="#AA6738" stroke-width="2.2"/>
<path d="M608.72 278.97C609.267 303.177 608.81 327.277 607.35 351.27C605.99 373.74 602.71 396.33 598.79 418.5C586.67 487.02 554.57 551 508.18 602.3C505.747 604.987 502.803 607.96 499.35 611.22C491.72 618.42 483.21 626.75 476.38 632.69C462.3 644.937 447.043 656.413 430.61 667.12" stroke="#FB9E36" stroke-width="2.2"/>
<path d="M430.61 667.12C429.937 654.953 429.663 642.913 429.79 631C429.863 623.907 429.833 617.237 429.7 610.99C429.37 595.72 429.89 579.63 429.79 565.25C429.61 539.83 430.06 514.41 429.9 488.99C429.66 451.577 429.66 414.163 429.9 376.75C429.933 370.903 429.893 364.237 429.78 356.75C429.473 337.337 429.54 317.923 429.98 298.51C430.19 288.93 429.66 278.52 429.76 268.5C429.94 250.78 429.8 237.29 429.81 221.7C429.81 219.47 428.91 217.29 428.85 214.91C428.844 214.743 428.788 214.581 428.688 214.447C428.587 214.313 428.449 214.213 428.29 214.16C428.063 214.073 427.81 214.073 427.53 214.16" stroke="#FBBC43" stroke-width="2.2"/>
<path d="M430.61 667.12C430.41 667.753 429.873 668.183 429 668.41C428.673 668.497 428.373 668.447 428.1 668.26C419.92 662.73 410.99 657.02 403.66 651.61C365.18 623.25 331.23 587.33 306.3 546.44C292.84 524.36 281.85 502.12 273.33 479.72C262.51 451.25 256.94 425.14 252.68 398C249.36 376.88 247.523 355.63 247.17 334.25C246.87 316.077 246.957 297.923 247.43 279.79" stroke="#FBA740" stroke-width="2.2"/>
<path d="M130.79 205.01C101.41 174.97 71.8367 144.59 42.07 113.87C39.16 110.86 35.66 110.04 31.99 108.32C3.67 95.12 -7.81 60.42 5.35 32.43C15.27 11.35 38.22 -1.67001 61.67 0.509992C92.12 3.34999 112.8 28.6 112.49 58.6C112.477 59.3333 112.73 59.96 113.25 60.48L194.22 141.51C194.365 141.655 194.537 141.771 194.727 141.85C194.916 141.928 195.12 141.969 195.325 141.969C195.53 141.969 195.734 141.928 195.923 141.85C196.113 141.771 196.285 141.655 196.43 141.51C213.67 124.303 230.76 107.203 247.7 90.21C254.207 83.6833 260.887 82.0133 267.74 85.2C270.28 86.3867 274.2 89.61 279.5 94.87C283.113 98.4633 286.72 102.067 290.32 105.68C293.28 108.65 296.07 111.65 296.75 115.74C297.383 119.573 296.347 122.873 293.64 125.64C279.473 140.093 265.167 154.307 250.72 168.28C249.753 169.22 249.74 170.17 250.68 171.13L282.83 203.89C283.097 204.163 283.413 204.25 283.78 204.15C334.54 189.82 381.67 164.68 425.4 133.33C427.967 131.49 430.697 131.567 433.59 133.56C440.09 138.033 446.623 142.447 453.19 146.8C490.077 171.287 529.683 190.07 572.01 203.15C572.777 203.39 573.553 203.593 574.34 203.76C574.503 203.794 574.672 203.786 574.831 203.737C574.99 203.688 575.134 203.599 575.25 203.48L607.21 170.71C607.399 170.515 607.504 170.254 607.502 169.981C607.5 169.708 607.392 169.446 607.2 169.25C594.393 156.49 581.533 143.643 568.62 130.71C559.76 121.83 557.4 116.07 566.67 106.57C572.13 100.963 577.657 95.44 583.25 90C590.19 83.24 599.48 80.43 607.21 88.04C625.53 106.053 643.493 124.043 661.1 142.01C661.707 142.637 662.317 142.637 662.93 142.01C689.243 115.19 715.237 89.0733 740.91 63.66C741.737 62.84 742.93 61.8333 744.49 60.64C744.77 60.42 744.91 60.1333 744.91 59.78C745.05 49.42 746.38 40.52 750.7 31.51C766.45 -1.34001 810.25 -9.77 837.84 13.66C872 42.66 860.56 96.08 819.15 111.33C818.743 111.477 818.003 112.093 816.93 113.18C788.223 142.053 759.593 171.007 731.04 200.04C729.267 201.833 727.823 203.487 726.71 205C726.117 205.807 726.17 206.563 726.87 207.27C744.33 224.917 761.527 242.357 778.46 259.59C786.88 268.17 788.28 273.08 779.8 281.99C776.62 285.323 771.623 290.513 764.81 297.56C762.02 300.44 759.4 302.88 755.58 304.01C749.2 305.89 743.54 304.353 738.6 299.4C726.293 287.047 714.093 274.707 702 262.38C701.918 262.297 701.821 262.231 701.713 262.186C701.605 262.142 701.489 262.119 701.373 262.12C701.256 262.121 701.141 262.145 701.034 262.192C700.927 262.238 700.83 262.306 700.75 262.39L692.91 270.49C692.262 271.158 691.896 272.05 691.89 272.98C691.757 292.493 691.733 312.25 691.82 332.25C692.12 397.53 682.16 465.83 657.33 527.41C650.897 543.37 643.81 559.037 636.07 574.41C635.997 574.559 635.963 574.724 635.972 574.889C635.981 575.054 636.032 575.212 636.12 575.35C637.387 577.363 638.81 579.193 640.39 580.84C667.337 608.847 685.997 628.45 696.37 639.65C697.95 641.35 698.77 644.08 698.77 646.63C698.817 674.257 698.837 701.88 698.83 729.5C698.83 739.52 692.61 742.07 683.97 740.63C650.743 735.07 617.497 729.637 584.23 724.33C583.03 724.143 581.517 723.057 579.69 721.07C569.537 710.043 559.417 698.963 549.33 687.83C549.291 687.787 549.244 687.752 549.192 687.728C549.139 687.703 549.082 687.69 549.024 687.688C548.966 687.686 548.909 687.696 548.855 687.717C548.801 687.738 548.751 687.77 548.71 687.81C524.93 711.423 498.767 732.06 470.22 749.72C453.95 759.78 438.65 770.38 418.45 765.54C414.377 764.56 409.137 762.233 402.73 758.56C368.663 739.027 337.2 715.307 308.34 687.4C308.308 687.369 308.27 687.346 308.228 687.331C308.187 687.315 308.143 687.309 308.098 687.312C308.054 687.315 308.011 687.327 307.972 687.347C307.933 687.367 307.898 687.396 307.87 687.43C299.543 697.143 291.007 706.737 282.26 716.21C277.24 721.65 275.96 723.75 269.3 724.86C219.5 733.187 186.993 738.583 171.78 741.05C165.933 741.997 162.07 740.473 160.19 736.48C159.357 734.713 158.93 731.18 158.91 725.88C158.803 698.82 158.797 671.777 158.89 644.75C158.897 643.063 159.963 641.1 162.09 638.86C180.423 619.52 198.75 600.173 217.07 580.82C218.683 579.12 220.137 577.47 221.43 575.87C221.641 575.612 221.773 575.299 221.808 574.968C221.844 574.638 221.782 574.305 221.63 574.01C199.58 530.88 183.45 485.61 175.03 437.01C169.63 405.79 166.79 374.18 166.77 342.5C166.757 319.393 166.673 296.353 166.52 273.38C166.52 272.52 166.187 271.689 165.59 271.06L157.34 262.42C157.235 262.31 157.108 262.222 156.967 262.162C156.827 262.103 156.675 262.072 156.523 262.073C156.37 262.074 156.219 262.106 156.08 262.168C155.94 262.229 155.814 262.318 155.71 262.43C145.37 273.53 134.75 284.45 123.85 295.19C116.63 302.29 110.5 307.48 101.11 303.58C98.7767 302.607 95.95 300.44 92.63 297.08C86.99 291.367 81.4367 285.607 75.97 279.8C69.58 273.01 72.58 266.9 78.42 260.92C95.0533 243.867 112.51 225.983 130.79 207.27C131.523 206.517 131.523 205.763 130.79 205.01ZM43.0227 90.0925C47.3402 91.8019 51.9567 92.6324 56.6087 92.5366C61.2608 92.4407 65.8572 91.4205 70.1356 89.534C74.414 87.6475 78.2905 84.9318 81.5439 81.5419C84.7973 78.1519 87.3638 74.1542 89.0969 69.7769C90.83 65.3996 91.6957 60.7285 91.6447 56.0303C91.5936 51.332 90.6268 46.6986 88.7994 42.3947C86.972 38.0908 84.3197 34.2005 80.9942 30.9461C77.6686 27.6917 73.7348 25.1369 69.4173 23.4275C65.0998 21.7181 60.4833 20.8876 55.8313 20.9834C51.1792 21.0793 46.5828 22.0995 42.3044 23.986C38.026 25.8725 34.1495 28.5882 30.8961 31.9781C27.6427 35.3681 25.0762 39.3658 23.3431 43.7431C21.61 48.1204 20.7443 52.7915 20.7953 57.4897C20.8464 62.188 21.8132 66.8214 23.6406 71.1253C25.468 75.4292 28.1203 79.3195 31.4458 82.5739C34.7714 85.8283 38.7052 88.3831 43.0227 90.0925ZM780.77 85.72C790.137 92.54 800.297 94.38 811.25 91.24C828.9 86.19 838.63 70.39 836.67 52.61C835.463 41.6433 829.91 32.9433 820.01 26.51C813.06 22.04 804.18 20.86 796.22 21.7C773.83 24.08 761.73 46.48 768.49 67.02C770.803 74.08 774.897 80.3133 780.77 85.72ZM90.33 99.23C84.6967 104.65 78.1467 108.7 70.68 111.38C70.5878 111.413 70.5049 111.467 70.438 111.538C70.3712 111.61 70.3225 111.696 70.2961 111.79C70.2696 111.884 70.2661 111.983 70.2859 112.079C70.3058 112.175 70.3483 112.264 70.41 112.34C71.3433 113.487 72.3567 114.64 73.45 115.8C96.69 140.467 120.67 165.12 145.39 189.76C145.552 189.922 145.745 190.051 145.958 190.138C146.17 190.226 146.397 190.27 146.627 190.269C146.857 190.268 147.084 190.222 147.295 190.133C147.507 190.044 147.699 189.914 147.86 189.75L163.12 174.34L179.16 158.09C179.395 157.851 179.526 157.528 179.524 157.193C179.522 156.858 179.388 156.537 179.15 156.3L105.49 82.82C105.402 82.7326 105.295 82.666 105.177 82.625C105.06 82.5839 104.936 82.5696 104.813 82.5831C104.69 82.5965 104.572 82.6374 104.467 82.7026C104.363 82.7678 104.275 82.8558 104.21 82.96C100.463 88.9667 95.8367 94.39 90.33 99.23ZM693.66 173.66L709.49 190.07C710.237 190.85 710.987 190.853 711.74 190.08C736.573 164.76 761.077 139.65 785.25 114.75C786.177 113.797 786.873 112.96 787.34 112.24C787.391 112.159 787.423 112.068 787.435 111.974C787.446 111.879 787.436 111.783 787.405 111.694C787.374 111.604 787.324 111.523 787.257 111.456C787.19 111.39 787.109 111.34 787.02 111.31C779.267 108.69 772.383 104.577 766.37 98.97C761.457 94.15 757.043 89.0267 753.13 83.6C752.965 83.3642 752.714 83.2029 752.43 83.1506C752.146 83.0982 751.851 83.159 751.61 83.32C749.67 84.63 748.6 85.98 747.06 87.52C725.64 108.947 704.21 130.363 682.77 151.77C681.217 153.323 679.743 155.013 678.35 156.84C678.26 156.962 678.216 157.112 678.225 157.264C678.234 157.416 678.296 157.559 678.4 157.67L693.66 173.66ZM270.36 117.5C269.37 114.22 266.06 110.82 263.47 108.97C261.37 107.47 259.243 107.763 257.09 109.85C203.11 162.06 150.68 215.8 98.51 269.83C98.327 270.018 98.2223 270.268 98.2168 270.531C98.2112 270.795 98.3052 271.051 98.48 271.25L106.3 280.03C106.54 280.3 106.872 280.469 107.23 280.504C107.588 280.539 107.945 280.438 108.23 280.22C109.49 279.267 110.687 278.217 111.82 277.07C146.887 241.683 181.98 206.327 217.1 171C233.58 154.44 250.45 138.24 267.09 121.84C268.47 120.487 269.503 119.363 270.19 118.47C270.292 118.334 270.361 118.175 270.39 118.006C270.42 117.838 270.409 117.664 270.36 117.5ZM600.35 110.16C597.47 107.25 596.36 107.13 593.28 109.75C590.7 111.95 588.587 114.45 586.94 117.25C586.798 117.486 586.738 117.762 586.769 118.037C586.8 118.311 586.919 118.569 587.11 118.77C589.017 120.79 591.017 122.827 593.11 124.88C645.463 176.273 697.503 227.993 749.23 280.04C749.577 280.386 750.044 280.587 750.534 280.602C751.025 280.617 751.502 280.445 751.87 280.12C754.81 277.513 757.3 274.533 759.34 271.18C759.48 270.948 759.539 270.676 759.508 270.406C759.478 270.137 759.359 269.885 759.17 269.69C734.143 243.91 709.06 218.34 683.92 192.98C679.593 188.62 674.853 183.927 669.7 178.9C646.393 156.18 623.277 133.267 600.35 110.16ZM429.16 156.66C428.607 156.767 428.17 156.933 427.85 157.16C375.72 194.05 315.09 221.24 252.27 233.35C242.64 235.2 236.67 226.91 240.17 217.86C245.877 215.14 252.137 213.127 258.95 211.82C259.077 211.795 259.195 211.738 259.294 211.654C259.393 211.571 259.47 211.464 259.517 211.344C259.563 211.223 259.579 211.093 259.562 210.965C259.545 210.836 259.496 210.714 259.42 210.61C258.44 209.31 257.273 207.963 255.92 206.57C248.74 199.203 241.563 191.917 234.39 184.71C234.335 184.654 234.27 184.61 234.198 184.58C234.126 184.55 234.048 184.534 233.97 184.534C233.892 184.534 233.814 184.55 233.742 184.58C233.67 184.61 233.605 184.654 233.55 184.71L175.44 242.33C175.385 242.383 175.342 242.447 175.312 242.518C175.283 242.589 175.267 242.665 175.267 242.742C175.267 242.819 175.283 242.896 175.312 242.968C175.342 243.039 175.385 243.105 175.44 243.16L184.49 252.11C185.86 254.41 186.97 256.07 187.15 258.81C187.41 262.643 187.537 265.457 187.53 267.25C187.297 312.023 187.437 341.023 187.95 354.25C191.26 438.9 212.4 524.49 259.81 595.52C280.6 626.67 302.39 653.66 330 679.27C350.72 698.483 374.12 716.28 400.2 732.66C406.3 736.49 413.97 740.97 419.49 743.76C423.363 745.707 427.107 746.393 430.72 745.82C434.847 745.233 438.24 744.173 440.9 742.64C473.333 723.967 503.303 701.94 530.81 676.56C540.31 667.8 549.94 657.76 559.7 646.44C580.74 622.03 600.27 595.78 615.29 567.94C638.103 525.673 653.703 480.777 662.09 433.25C667.39 403.26 670.75 372.47 670.75 341.99C670.743 309.617 670.82 283.37 670.98 263.25C671.007 260.157 671.757 257.083 673.23 254.03C675.843 250.237 678.883 247.017 682.35 244.37C682.479 244.27 682.586 244.144 682.662 244C682.739 243.855 682.783 243.696 682.793 243.533C682.802 243.37 682.776 243.206 682.717 243.054C682.658 242.902 682.567 242.764 682.45 242.65L623.68 185.07C623.563 184.957 623.406 184.895 623.243 184.897C623.08 184.899 622.925 184.964 622.81 185.08L598.41 210.22C598.321 210.311 598.258 210.425 598.228 210.549C598.199 210.673 598.204 210.803 598.243 210.925C598.282 211.046 598.354 211.155 598.45 211.239C598.547 211.322 598.664 211.378 598.79 211.4C605.223 212.607 611.297 214.583 617.01 217.33C621.33 228.24 614.15 234.91 603.74 232.72C541.65 219.65 484.12 193.2 431.66 157.31C431 156.863 430.167 156.647 429.16 156.66ZM242.82 707.19L262.34 704.05C263.768 703.823 265.084 703.139 266.09 702.1C274.47 693.467 282.867 684.52 291.28 675.26C292.027 674.44 292.61 673.65 293.03 672.89C293.21 672.557 293.17 672.253 292.91 671.98C285.617 664.373 278.603 656.307 271.87 647.78L251.86 621.98C247.173 615.167 242.597 608.313 238.13 601.42C236.643 599.12 235.09 597.103 233.47 595.37C233.382 595.275 233.275 595.2 233.156 595.148C233.037 595.097 232.908 595.07 232.778 595.07C232.648 595.07 232.519 595.097 232.399 595.148C232.279 595.2 232.17 595.275 232.08 595.37C215.913 612.67 199.8 629.717 183.74 646.51C180.08 650.35 180.63 652.14 180.6 658.03C180.5 677.437 180.483 696.93 180.55 716.51C180.55 716.87 180.73 717.023 181.09 716.97L242.82 707.19ZM606.38 621.09C600.013 630.21 593.16 639.163 585.82 647.95C579.3 656.177 572.2 664.187 564.52 671.98C564.267 672.233 564.243 672.51 564.45 672.81C565.39 674.183 566.43 675.473 567.57 676.68C575.883 685.513 584.13 694.177 592.31 702.67C592.836 703.209 593.519 703.566 594.26 703.69L676.12 716.85C676.213 716.864 676.307 716.859 676.397 716.833C676.487 716.808 676.571 716.763 676.642 716.702C676.713 716.641 676.77 716.566 676.81 716.481C676.849 716.396 676.87 716.304 676.87 716.21C676.79 696.05 676.8 675.853 676.9 655.62C676.91 653.37 677.27 650.71 675.75 649.01C660.68 632.23 644.63 616.26 629.1 599.89C627.553 598.257 625.993 596.743 624.42 595.35C624.366 595.303 624.302 595.267 624.233 595.246C624.164 595.225 624.092 595.218 624.021 595.227C623.951 595.235 623.883 595.259 623.822 595.295C623.761 595.332 623.71 595.381 623.67 595.44L606.38 621.09Z" fill="#591B36"/>
<path d="M43.0227 90.0925C38.7052 88.3831 34.7714 85.8282 31.4458 82.5738C28.1203 79.3195 25.468 75.4292 23.6406 71.1253C21.8132 66.8213 20.8464 62.188 20.7953 57.4897C20.7443 52.7915 21.61 48.1204 23.3431 43.7431C25.0762 39.3658 27.6427 35.3681 30.8961 31.9781C34.1495 28.5882 38.026 25.8725 42.3044 23.986C46.5828 22.0995 51.1792 21.0793 55.8313 20.9834C60.4833 20.8876 65.0998 21.7181 69.4173 23.4275C73.7347 25.1369 77.6686 27.6917 80.9942 30.9461C84.3197 34.2005 86.972 38.0908 88.7994 42.3947C90.6268 46.6986 91.5936 51.332 91.6447 56.0303C91.6957 60.7285 90.83 65.3996 89.0969 69.7769C87.3638 74.1542 84.7973 78.1519 81.5439 81.5419C78.2905 84.9318 74.414 87.6475 70.1356 89.534C65.8572 91.4204 61.2608 92.4407 56.6087 92.5366C51.9567 92.6324 47.3402 91.8019 43.0227 90.0925ZM57.4806 74.6598C59.6119 74.671 61.7247 74.2405 63.6983 73.393C65.6719 72.5454 67.4676 71.2975 68.983 69.7203C70.4984 68.1431 71.7037 66.2676 72.5302 64.2009C73.3566 62.1341 73.7881 59.9166 73.7998 57.675C73.8115 55.4334 73.4034 53.2115 72.5986 51.1362C71.7938 49.0609 70.6082 47.1729 69.1094 45.5799C67.6106 43.9869 65.8281 42.7202 63.8635 41.8521C61.8989 40.9839 59.7907 40.5314 57.6594 40.5202C55.5281 40.509 53.4153 40.9395 51.4417 41.787C49.4681 42.6346 47.6724 43.8825 46.157 45.4597C44.6416 47.0369 43.4363 48.9124 42.6098 50.9791C41.7834 53.0459 41.3519 55.2634 41.3402 57.505C41.3285 59.7466 41.7366 61.9685 42.5414 64.0438C43.3462 66.1191 44.5318 68.0071 46.0306 69.6001C47.5294 71.193 49.3119 72.4598 51.2765 73.3279C53.2411 74.1961 55.3493 74.6486 57.4806 74.6598Z" fill="#149BC0"/>
<path d="M820.01 26.51C820.557 28.69 820.047 30.69 818.48 32.51C816.68 34.61 815.763 35.6867 815.73 35.74C813.723 38.48 811.36 41.04 808.64 43.42C797.5 36.32 783.43 43.89 783.36 57.08C783.32 63.88 786.55 69.29 793.05 73.31C789.743 77.33 786.05 80.86 781.97 83.9C781.77 84.0466 781.697 84.24 781.75 84.48C781.777 84.6133 781.787 84.7533 781.78 84.9C781.767 85.1666 781.66 85.36 781.46 85.48C781.287 85.5866 781.057 85.6666 780.77 85.72C774.897 80.3133 770.803 74.08 768.49 67.02C761.73 46.48 773.83 24.08 796.22 21.7C804.18 20.86 813.06 22.04 820.01 26.51Z" fill="#15ADC7"/>
<path d="M820.01 26.51C829.91 32.9433 835.463 41.6433 836.67 52.61C838.63 70.39 828.9 86.19 811.25 91.24C800.297 94.38 790.137 92.54 780.77 85.72C781.057 85.6667 781.287 85.5867 781.46 85.48C781.66 85.36 781.767 85.1667 781.78 84.9C781.787 84.7533 781.777 84.6133 781.75 84.48C781.697 84.24 781.77 84.0467 781.97 83.9C786.05 80.86 789.743 77.33 793.05 73.31C811.27 81.61 826.89 56.1 808.64 43.42C811.36 41.04 813.723 38.48 815.73 35.74C815.763 35.6867 816.68 34.61 818.48 32.51C820.047 30.69 820.557 28.69 820.01 26.51Z" fill="#138FB7"/>
<path d="M41.3402 57.505C41.2909 66.9324 48.5172 74.6128 57.4806 74.6598C66.4441 74.7067 73.7504 67.1024 73.7998 57.675C73.8491 48.2476 66.6228 40.5672 57.6594 40.5202C48.6959 40.4733 41.3896 48.0777 41.3402 57.505Z" fill="#591B36"/>
<path d="M808.64 43.42C826.89 56.1 811.27 81.61 793.05 73.31C786.55 69.29 783.32 63.88 783.36 57.08C783.43 43.89 797.5 36.32 808.64 43.42Z" fill="#591B36"/>
<path d="M163.12 174.34C161.82 172.547 160.54 170.723 159.28 168.87C157.933 166.903 156.523 165.19 155.05 163.73C150.523 159.243 145.84 154.93 141 150.79C136.99 147.35 132.84 143.04 129.4 139.44C122.5 132.227 115.51 125.103 108.43 118.07C102.72 112.4 96.59 105.36 90.33 99.23C95.8367 94.39 100.463 88.9667 104.21 82.96C104.275 82.8558 104.363 82.7678 104.468 82.7026C104.572 82.6374 104.69 82.5965 104.813 82.5831C104.936 82.5696 105.06 82.5839 105.177 82.625C105.295 82.666 105.402 82.7326 105.49 82.82L179.15 156.3C179.388 156.537 179.522 156.858 179.524 157.193C179.526 157.528 179.395 157.851 179.16 158.09L163.12 174.34Z" fill="#15ADC7"/>
<path d="M766.37 98.97C751.877 113.357 737.463 127.783 723.13 142.25C723.11 142.27 718.593 147.02 709.58 156.5C704.78 161.553 699.767 166.393 694.54 171.02C694.415 171.13 694.316 171.266 694.25 171.418C694.185 171.57 694.154 171.735 694.16 171.9C694.187 172.673 694.02 173.26 693.66 173.66L678.4 157.67C678.296 157.559 678.234 157.416 678.225 157.264C678.216 157.112 678.26 156.962 678.35 156.84C679.743 155.013 681.217 153.323 682.77 151.77C704.21 130.363 725.64 108.947 747.06 87.52C748.6 85.98 749.67 84.63 751.61 83.32C751.851 83.1591 752.146 83.0982 752.43 83.1506C752.714 83.2029 752.965 83.3643 753.13 83.6C757.043 89.0267 761.457 94.15 766.37 98.97Z" fill="#15ADC7"/>
<path d="M766.37 98.97C772.383 104.577 779.267 108.69 787.02 111.31C787.109 111.34 787.19 111.39 787.257 111.456C787.324 111.523 787.374 111.604 787.405 111.694C787.436 111.783 787.446 111.879 787.435 111.974C787.423 112.068 787.391 112.159 787.34 112.24C786.873 112.96 786.177 113.797 785.25 114.75C761.077 139.65 736.573 164.76 711.74 190.08C710.987 190.853 710.237 190.85 709.49 190.07L693.66 173.66C694.02 173.26 694.187 172.673 694.16 171.9C694.154 171.735 694.185 171.57 694.25 171.418C694.316 171.266 694.415 171.13 694.54 171.02C699.767 166.393 704.78 161.553 709.58 156.5C718.593 147.02 723.11 142.27 723.13 142.25C737.463 127.783 751.877 113.357 766.37 98.97Z" fill="#138FB7"/>
<path d="M90.33 99.23C96.59 105.36 102.72 112.4 108.43 118.07C115.51 125.103 122.5 132.227 129.4 139.44C132.84 143.04 136.99 147.35 141 150.79C145.84 154.93 150.523 159.243 155.05 163.73C156.523 165.19 157.933 166.903 159.28 168.87C160.54 170.723 161.82 172.547 163.12 174.34L147.86 189.75C147.699 189.914 147.507 190.044 147.295 190.133C147.084 190.222 146.857 190.268 146.627 190.269C146.397 190.27 146.17 190.226 145.958 190.138C145.745 190.051 145.552 189.922 145.39 189.76C120.67 165.12 96.69 140.467 73.45 115.8C72.3567 114.64 71.3433 113.487 70.41 112.34C70.3483 112.264 70.3058 112.175 70.2859 112.079C70.2661 111.983 70.2696 111.884 70.296 111.79C70.3225 111.696 70.3712 111.609 70.438 111.538C70.5048 111.467 70.5878 111.413 70.68 111.38C78.1466 108.7 84.6967 104.65 90.33 99.23Z" fill="#149BC0"/>
<path d="M263.47 108.97C266.06 110.82 269.37 114.22 270.36 117.5C270.409 117.664 270.42 117.838 270.39 118.006C270.36 118.175 270.292 118.334 270.19 118.47C269.503 119.363 268.47 120.487 267.09 121.84C250.45 138.24 233.58 154.44 217.1 171C181.98 206.327 146.887 241.683 111.82 277.07C110.687 278.217 109.49 279.267 108.23 280.22C107.945 280.438 107.588 280.539 107.23 280.504C106.872 280.469 106.54 280.3 106.3 280.03L98.48 271.25C98.3052 271.051 98.2112 270.795 98.2168 270.531C98.2223 270.268 98.327 270.018 98.51 269.83C150.68 215.8 203.11 162.06 257.09 109.85C259.243 107.763 261.37 107.47 263.47 108.97Z" fill="#149BC0"/>
<path d="M593.28 109.75C596.36 107.13 597.47 107.25 600.35 110.16C623.277 133.267 646.393 156.18 669.7 178.9C674.853 183.927 679.593 188.62 683.92 192.98C709.06 218.34 734.143 243.91 759.17 269.69C759.359 269.885 759.478 270.137 759.508 270.406C759.539 270.676 759.48 270.948 759.34 271.18C757.3 274.533 754.81 277.513 751.87 280.12C751.502 280.445 751.025 280.617 750.534 280.602C750.044 280.587 749.577 280.386 749.23 280.04C697.503 227.993 645.463 176.273 593.11 124.88C591.017 122.827 589.017 120.79 587.11 118.77C586.919 118.569 586.8 118.311 586.769 118.037C586.738 117.762 586.798 117.486 586.94 117.25C588.587 114.45 590.7 111.95 593.28 109.75Z" fill="#149BC0"/>
<path d="M617.01 217.33C626.243 218.943 635.167 221.033 643.78 223.6C655.94 227.24 663.07 236.98 671.24 247.26C672.533 248.887 673.197 251.143 673.23 254.03C671.757 257.083 671.007 260.157 670.98 263.25C670.82 283.37 670.743 309.617 670.75 341.99C670.75 372.47 667.39 403.26 662.09 433.25C653.703 480.777 638.103 525.673 615.29 567.94C600.27 595.78 580.74 622.03 559.7 646.44C549.94 657.76 540.31 667.8 530.81 676.56C503.303 701.94 473.333 723.967 440.9 742.64C438.24 744.173 434.847 745.233 430.72 745.82C429.867 736.507 429.69 727.63 430.19 719.19C431.883 717.79 433.603 716.613 435.35 715.66C438.657 713.853 440.33 712.94 440.37 712.92C477.48 689.81 515.48 660.33 545.27 625.78C574.44 591.95 598.05 553.35 614.12 511.69C623.413 487.597 630.527 463.777 635.46 440.23C640.447 416.437 643.973 391.267 646.04 364.72C646.513 358.707 646.813 352.053 646.94 344.76C647.38 319.433 647.53 294.09 647.39 268.73C647.37 264.763 645.273 262.527 641.1 262.02C613.38 258.633 585.183 253.53 556.51 246.71C527.183 239.743 497.71 228.147 468.09 211.92C457.39 206.06 444.72 198.17 430.08 188.25C429.64 185.83 429.54 183.207 429.78 180.38C430.47 172.36 429.9 164.68 429.16 156.66C430.167 156.647 431 156.863 431.66 157.31C484.12 193.2 541.65 219.65 603.74 232.72C614.15 234.91 621.33 228.24 617.01 217.33Z" fill="#138FB7"/>
<path d="M429.16 156.66C429.9 164.68 430.47 172.36 429.78 180.38C429.54 183.207 429.64 185.83 430.08 188.25C393.12 214.27 352.897 233.337 309.41 245.45C303.61 247.063 297.137 248.657 289.99 250.23C265.87 255.53 241.533 259.58 216.98 262.38C213.353 262.793 211.51 264.827 211.45 268.48C210.99 295.707 211.223 322.073 212.15 347.58C212.92 368.65 215.36 391.25 218.06 410.5C225.62 464.42 243.43 516.17 269.8 564.25C298.38 616.36 340.74 660.25 389.54 693.95C403.953 703.903 417.503 712.317 430.19 719.19C429.69 727.63 429.867 736.507 430.72 745.82C427.107 746.393 423.363 745.707 419.49 743.76C413.97 740.97 406.3 736.49 400.2 732.66C374.12 716.28 350.72 698.483 330 679.27C302.39 653.66 280.6 626.67 259.81 595.52C212.4 524.49 191.26 438.9 187.95 354.25C187.437 341.023 187.297 312.023 187.53 267.25C187.537 265.457 187.41 262.643 187.15 258.81C186.97 256.07 185.86 254.41 184.49 252.11C186.603 247.857 189.25 243.8 192.43 239.94C199.39 231.49 204.45 226.3 214.52 223.52C224.42 220.78 232.97 218.893 240.17 217.86C236.67 226.91 242.64 235.2 252.27 233.35C315.09 221.24 375.72 194.05 427.85 157.16C428.17 156.933 428.607 156.767 429.16 156.66Z" fill="#15ADC7"/>
<path d="M240.17 217.86C232.97 218.893 224.42 220.78 214.52 223.52C204.45 226.3 199.39 231.49 192.43 239.94C189.25 243.8 186.603 247.857 184.49 252.11L175.44 243.16C175.385 243.105 175.342 243.039 175.312 242.968C175.283 242.896 175.267 242.819 175.267 242.742C175.267 242.665 175.283 242.589 175.312 242.518C175.342 242.447 175.385 242.383 175.44 242.33L233.55 184.71C233.605 184.654 233.67 184.61 233.742 184.58C233.814 184.55 233.892 184.534 233.97 184.534C234.048 184.534 234.126 184.55 234.198 184.58C234.27 184.61 234.335 184.654 234.39 184.71C241.563 191.917 248.74 199.203 255.92 206.57C257.273 207.963 258.44 209.31 259.42 210.61C259.496 210.714 259.545 210.836 259.562 210.965C259.579 211.093 259.563 211.223 259.517 211.344C259.47 211.464 259.393 211.571 259.294 211.654C259.195 211.738 259.077 211.795 258.95 211.82C252.137 213.127 245.877 215.14 240.17 217.86Z" fill="#8FFF00"/>
<path d="M673.23 254.03C673.197 251.143 672.533 248.887 671.24 247.26C663.07 236.98 655.94 227.24 643.78 223.6C635.167 221.033 626.243 218.943 617.01 217.33C611.297 214.583 605.223 212.607 598.79 211.4C598.664 211.378 598.547 211.322 598.45 211.239C598.354 211.155 598.282 211.046 598.243 210.925C598.204 210.803 598.199 210.673 598.228 210.549C598.258 210.425 598.321 210.311 598.41 210.22L622.81 185.08C622.925 184.964 623.08 184.899 623.243 184.897C623.406 184.895 623.563 184.957 623.68 185.07L682.45 242.65C682.567 242.764 682.658 242.902 682.717 243.054C682.776 243.206 682.802 243.37 682.793 243.533C682.783 243.696 682.739 243.855 682.662 244C682.586 244.144 682.479 244.27 682.35 244.37C678.883 247.017 675.843 250.237 673.23 254.03Z" fill="#8FFF00"/>
<path d="M430.08 188.25C444.72 198.17 457.39 206.06 468.09 211.92C497.71 228.147 527.183 239.743 556.51 246.71C585.183 253.53 613.38 258.633 641.1 262.02C645.273 262.527 647.37 264.763 647.39 268.73C647.53 294.09 647.38 319.433 646.94 344.76C646.813 352.053 646.513 358.707 646.04 364.72C643.973 391.267 640.447 416.437 635.46 440.23C630.527 463.777 623.413 487.597 614.12 511.69C598.05 553.35 574.44 591.95 545.27 625.78C515.48 660.33 477.48 689.81 440.37 712.92C440.33 712.94 438.657 713.853 435.35 715.66C433.603 716.613 431.883 717.79 430.19 719.19C417.503 712.317 403.953 703.903 389.54 693.95C340.74 660.25 298.38 616.36 269.8 564.25C243.43 516.17 225.62 464.42 218.06 410.5C215.36 391.25 212.92 368.65 212.15 347.58C211.223 322.073 210.99 295.707 211.45 268.48C211.51 264.827 213.353 262.793 216.98 262.38C241.533 259.58 265.87 255.53 289.99 250.23C297.137 248.657 303.61 247.063 309.41 245.45C352.897 233.337 393.12 214.27 430.08 188.25ZM427.53 214.16C394.303 236.513 359.03 253.1 321.71 263.92C298.917 270.527 274.157 275.817 247.43 279.79L230.04 281.96C229.912 281.977 229.795 282.039 229.71 282.135C229.625 282.231 229.579 282.353 229.58 282.48C229.74 331.54 230.81 380.03 239.44 428.5C247.3 472.66 262.743 515.17 285.77 556.03C297.35 576.57 311.52 595.71 327.3 613.23C356.58 645.75 390.123 673.047 427.93 695.12C428.737 695.593 429.69 695.477 430.79 694.77C448.817 683.163 463.677 672.86 475.37 663.86C498.93 645.73 521.22 624.99 540.1 602.01C586.09 546.04 614.23 475.92 623.49 403.91C625.76 386.28 628.47 365.45 628.94 348C629.507 326.673 629.79 304.913 629.79 282.72C629.79 282 629.433 281.593 628.72 281.5L608.72 278.97C591.88 276.297 574.727 272.87 557.26 268.69C525.86 261.17 495.873 249.91 467.3 234.91C456.027 228.99 443.86 221.897 430.8 213.63C429.47 212.79 428.57 213.16 427.53 214.16Z" fill="#591B36"/>
<path d="M609.19 278.805C609.737 303.012 609.28 327.112 607.82 351.105C606.46 373.575 603.18 396.165 599.26 418.335C587.14 486.855 555.04 550.835 508.65 602.135C506.217 604.822 503.273 607.795 499.82 611.055C492.19 618.255 483.68 626.585 476.85 632.525C462.77 644.772 447.513 656.249 431.08 666.955C430.407 654.789 430.133 642.749 430.26 630.835C430.333 623.742 430.303 617.072 430.17 610.825C429.84 595.555 430.36 579.465 430.26 565.085C430.08 539.665 430.53 514.245 430.37 488.825C430.13 451.412 430.13 413.999 430.37 376.585C430.403 370.739 430.363 364.072 430.25 356.585C429.943 337.172 430.01 317.759 430.45 298.345C430.66 288.765 430.13 278.355 430.23 268.335C430.41 250.615 430.27 237.125 430.28 221.535C430.28 219.305 429.38 217.125 429.32 214.745C429.314 214.578 429.258 214.417 429.158 214.282C429.057 214.148 428.919 214.048 428.76 213.995C428.533 213.909 428.28 213.909 428 213.995C429.04 212.995 429.94 212.625 431.27 213.465C444.33 221.732 456.497 228.825 467.77 234.745C496.343 249.745 526.33 261.005 557.73 268.525C575.197 272.705 592.35 276.132 609.19 278.805Z" fill="#FAB239"/>
<path d="M427.53 214.16C427.81 214.073 428.063 214.073 428.29 214.16C428.449 214.213 428.587 214.313 428.688 214.447C428.788 214.581 428.844 214.743 428.85 214.91C428.91 217.29 429.81 219.47 429.81 221.7C429.8 237.29 429.94 250.78 429.76 268.5C429.66 278.52 430.19 288.93 429.98 298.51C429.54 317.923 429.473 337.337 429.78 356.75C429.893 364.237 429.933 370.903 429.9 376.75C429.66 414.163 429.66 451.577 429.9 488.99C430.06 514.41 429.61 539.83 429.79 565.25C429.89 579.63 429.37 595.72 429.7 610.99C429.833 617.237 429.863 623.907 429.79 631C429.663 642.913 429.937 654.953 430.61 667.12C430.41 667.753 429.873 668.183 429 668.41C428.673 668.497 428.373 668.447 428.1 668.26C419.92 662.73 410.99 657.02 403.66 651.61C365.18 623.25 331.23 587.33 306.3 546.44C292.84 524.36 281.85 502.12 273.33 479.72C262.51 451.25 256.94 425.14 252.68 398C249.36 376.88 247.523 355.63 247.17 334.25C246.87 316.077 246.957 297.923 247.43 279.79C274.157 275.817 298.917 270.527 321.71 263.92C359.03 253.1 394.303 236.513 427.53 214.16Z" fill="#FBC54D"/>
<path d="M608.72 278.97L628.72 281.5C629.433 281.593 629.79 282 629.79 282.72C629.79 304.913 629.507 326.673 628.94 348C628.47 365.45 625.76 386.28 623.49 403.91C614.23 475.92 586.09 546.04 540.1 602.01C521.22 624.99 498.93 645.73 475.37 663.86C463.677 672.86 448.817 683.163 430.79 694.77C429.69 695.477 428.737 695.593 427.93 695.12C390.123 673.047 356.58 645.75 327.3 613.23C311.52 595.71 297.35 576.57 285.77 556.03C262.743 515.17 247.3 472.66 239.44 428.5C230.81 380.03 229.74 331.54 229.58 282.48C229.579 282.353 229.625 282.231 229.71 282.135C229.795 282.039 229.912 281.977 230.04 281.96L247.43 279.79C246.957 297.923 246.87 316.077 247.17 334.25C247.523 355.63 249.36 376.88 252.68 398C256.94 425.14 262.51 451.25 273.33 479.72C281.85 502.12 292.84 524.36 306.3 546.44C331.23 587.33 365.18 623.25 403.66 651.61C410.99 657.02 419.92 662.73 428.1 668.26C428.373 668.447 428.673 668.497 429 668.41C429.873 668.183 430.41 667.753 430.61 667.12C447.043 656.413 462.3 644.937 476.38 632.69C483.21 626.75 491.72 618.42 499.35 611.22C502.803 607.96 505.747 604.987 508.18 602.3C554.57 551 586.67 487.02 598.79 418.5C602.71 396.33 605.99 373.74 607.35 351.27C608.81 327.277 609.267 303.177 608.72 278.97Z" fill="#FB8933"/>
<path d="M345.33 433.06C344.303 434.933 344.393 436.93 345.6 439.05C356.813 458.703 368.08 478.323 379.4 497.91C381.73 501.95 384.43 505.08 383.28 510C380.86 520.34 366.68 523.66 360.99 513.75C353.91 501.423 341.98 480.193 325.2 450.06C320.78 442.13 317.43 437.84 320.28 430.34C320.56 429.62 321.937 427.093 324.41 422.76C335.683 402.993 346.933 383.217 358.16 363.43C360.8 358.78 364.11 354.96 369.66 354.49C376.33 353.93 383.42 359.65 382.76 366.61C382.593 368.423 381.483 371.017 379.43 374.39C366.523 395.583 355.157 415.14 345.33 433.06Z" fill="#591B36"/>
<path d="M514.68 432.57C503.55 412.61 492.48 392.02 479.7 373.09C478.48 371.283 477.743 369.61 477.49 368.07C476.49 361.963 479.177 357.733 485.55 355.38C489.637 353.873 493.193 354.173 496.22 356.28C498.407 357.807 500.503 360.33 502.51 363.85C514.697 385.283 526.677 406.837 538.45 428.51C541.89 434.83 540.45 439.27 536.85 445.63C523.99 468.343 511.147 491.063 498.32 513.79C492.32 524.43 475.92 519.36 476.26 507.4C476.313 505.547 477.093 503.3 478.6 500.66C490.6 479.647 502.597 458.637 514.59 437.63C515.577 435.917 515.607 434.23 514.68 432.57Z" fill="#591B36"/>
<path d="M251.86 621.98L250.19 621.93C250.045 621.927 249.9 621.953 249.764 622.008C249.629 622.063 249.505 622.146 249.4 622.25C235.313 636.483 221.303 650.793 207.37 665.18C206.45 666.13 205.75 668.2 205.68 669.51C205.327 675.723 204.567 681.833 203.4 687.84C203.38 687.942 203.384 688.047 203.413 688.147C203.442 688.247 203.494 688.338 203.566 688.414C203.637 688.489 203.726 688.546 203.824 688.581C203.922 688.615 204.027 688.625 204.13 688.61C213.763 687.35 223.467 686.487 233.24 686.02C234.24 685.98 235.02 685.8 235.8 685.06C244.327 676.987 252.553 668.63 260.48 659.99C261.267 660.177 261.5 660.513 261.18 661C260.313 662.327 259.427 663.647 258.52 664.96C257.68 666.173 256.66 667.38 255.46 668.58C251.1 672.953 246.953 677.52 243.02 682.28C239.84 686.11 238.56 687.24 239.19 691.99C240.05 698.457 241.26 703.523 242.82 707.19L181.09 716.97C180.73 717.023 180.55 716.87 180.55 716.51C180.483 696.93 180.5 677.437 180.6 658.03C180.63 652.14 180.08 650.35 183.74 646.51C199.8 629.717 215.913 612.67 232.08 595.37C232.17 595.275 232.279 595.2 232.399 595.148C232.519 595.097 232.648 595.07 232.778 595.07C232.908 595.07 233.037 595.097 233.156 595.148C233.275 595.2 233.382 595.275 233.47 595.37C235.09 597.103 236.643 599.12 238.13 601.42C242.597 608.313 247.173 615.167 251.86 621.98Z" fill="#8FFF00"/>
<path d="M585.82 647.95C597.313 660.17 609.193 672.033 621.46 683.54C623 684.987 624.263 685.74 625.25 685.8C634.85 686.387 644.36 687.31 653.78 688.57C653.853 688.58 653.928 688.573 653.997 688.549C654.067 688.525 654.131 688.484 654.183 688.431C654.235 688.378 654.275 688.313 654.299 688.242C654.322 688.171 654.33 688.095 654.32 688.02C653.393 681.853 652.68 675.667 652.18 669.46C651.87 665.56 648.26 662.53 644.84 659.16C634.2 648.633 623.633 638.033 613.14 627.36C611.08 625.26 608.827 623.17 606.38 621.09L623.67 595.44C623.71 595.381 623.761 595.332 623.822 595.295C623.883 595.259 623.951 595.235 624.021 595.227C624.092 595.218 624.164 595.225 624.233 595.246C624.302 595.267 624.366 595.303 624.42 595.35C625.993 596.743 627.553 598.257 629.1 599.89C644.63 616.26 660.68 632.23 675.75 649.01C677.27 650.71 676.91 653.37 676.9 655.62C676.8 675.853 676.79 696.05 676.87 716.21C676.87 716.304 676.849 716.396 676.81 716.481C676.77 716.566 676.713 716.641 676.642 716.702C676.571 716.763 676.487 716.808 676.397 716.833C676.307 716.859 676.213 716.864 676.12 716.85L594.26 703.69C593.519 703.566 592.836 703.209 592.31 702.67C584.13 694.177 575.883 685.513 567.57 676.68C566.43 675.473 565.39 674.183 564.45 672.81C564.243 672.51 564.267 672.233 564.52 671.98C572.2 664.187 579.3 656.177 585.82 647.95Z" fill="#8FFF00"/>
<path d="M271.87 647.78C278.603 656.307 285.617 664.373 292.91 671.98C293.17 672.253 293.21 672.557 293.03 672.89C292.61 673.65 292.027 674.44 291.28 675.26C282.867 684.52 274.47 693.467 266.09 702.1C265.084 703.139 263.768 703.823 262.34 704.05L242.82 707.19C241.26 703.523 240.05 698.457 239.19 691.99C238.56 687.24 239.84 686.11 243.02 682.28C246.953 677.52 251.1 672.953 255.46 668.58C256.66 667.38 257.68 666.173 258.52 664.96C259.427 663.647 260.313 662.327 261.18 661C261.5 660.513 261.267 660.177 260.48 659.99L271.87 647.78Z" fill="#8FFF00"/>
</g>
<defs>
<clipPath id="clip0_1_2">
<rect width="858" height="767" fill="white"/>
</clipPath>
</defs>
</svg>
