<svg width="513" height="34" viewBox="0 0 513 34" fill="none" xmlns="http://www.w3.org/2000/svg">
<line opacity="0.3" y1="16.5" x2="513" y2="16.5" stroke="white"/>
<rect x="190.99" width="131.994" height="34" fill="black"/>
<path d="M227.638 18.325C227.638 19.275 227.755 20.1417 227.988 20.925C228.222 21.6917 228.555 22.35 228.988 22.9C229.438 23.4333 229.98 23.85 230.613 24.15C231.247 24.45 231.963 24.6 232.763 24.6C233.547 24.6 234.255 24.45 234.888 24.15C235.522 23.85 236.055 23.4333 236.488 22.9C236.938 22.35 237.28 21.6917 237.513 20.925C237.747 20.1417 237.863 19.275 237.863 18.325C237.863 17.375 237.747 16.5167 237.513 15.75C237.28 14.9667 236.938 14.3083 236.488 13.775C236.055 13.225 235.522 12.8 234.888 12.5C234.255 12.2 233.547 12.05 232.763 12.05C231.963 12.05 231.247 12.2 230.613 12.5C229.98 12.8 229.438 13.225 228.988 13.775C228.555 14.325 228.222 14.9833 227.988 15.75C227.755 16.5167 227.638 17.375 227.638 18.325ZM241.163 18.325C241.163 19.8083 240.938 21.1167 240.488 22.25C240.055 23.3833 239.455 24.3333 238.688 25.1C237.938 25.85 237.055 26.4167 236.038 26.8C235.022 27.1833 233.938 27.375 232.788 27.375C231.638 27.375 230.547 27.1833 229.513 26.8C228.497 26.4167 227.605 25.85 226.838 25.1C226.088 24.3333 225.488 23.3833 225.038 22.25C224.588 21.1167 224.363 19.8083 224.363 18.325C224.363 16.8417 224.588 15.5417 225.038 14.425C225.488 13.2917 226.097 12.3417 226.863 11.575C227.647 10.8083 228.547 10.2333 229.563 9.85C230.58 9.46667 231.655 9.275 232.788 9.275C233.922 9.275 234.997 9.46667 236.013 9.85C237.03 10.2333 237.913 10.8083 238.663 11.575C239.43 12.3417 240.038 13.2917 240.488 14.425C240.938 15.5417 241.163 16.8417 241.163 18.325ZM244.319 10.475L247.344 9.975V13.925H251.994V16.45H247.344V21.775C247.344 22.825 247.511 23.575 247.844 24.025C248.177 24.475 248.744 24.7 249.544 24.7C250.094 24.7 250.577 24.6417 250.994 24.525C251.427 24.4083 251.769 24.3 252.019 24.2L252.519 26.6C252.169 26.75 251.711 26.9 251.144 27.05C250.577 27.2167 249.911 27.3 249.144 27.3C248.211 27.3 247.427 27.175 246.794 26.925C246.177 26.675 245.686 26.3167 245.319 25.85C244.952 25.3667 244.694 24.7917 244.544 24.125C244.394 23.4417 244.319 22.6667 244.319 21.8V10.475ZM254.918 27V8.1L257.943 7.6V14.075C258.276 13.9583 258.66 13.8583 259.093 13.775C259.543 13.6917 259.985 13.65 260.418 13.65C261.468 13.65 262.335 13.8 263.018 14.1C263.718 14.3833 264.276 14.7917 264.693 15.325C265.11 15.8417 265.401 16.4667 265.568 17.2C265.751 17.9333 265.843 18.75 265.843 19.65V27H262.818V20.125C262.818 19.425 262.768 18.8333 262.668 18.35C262.585 17.85 262.435 17.45 262.218 17.15C262.018 16.8333 261.743 16.6083 261.393 16.475C261.043 16.325 260.61 16.25 260.093 16.25C259.693 16.25 259.285 16.2917 258.868 16.375C258.451 16.4583 258.143 16.5333 257.943 16.6V27H254.918ZM268.744 20.525C268.744 19.375 268.911 18.3667 269.244 17.5C269.594 16.6333 270.052 15.9167 270.619 15.35C271.186 14.7667 271.836 14.3333 272.569 14.05C273.302 13.75 274.052 13.6 274.819 13.6C276.619 13.6 278.019 14.1583 279.019 15.275C280.036 16.3917 280.544 18.0583 280.544 20.275C280.544 20.4417 280.536 20.6333 280.519 20.85C280.519 21.05 280.511 21.2333 280.494 21.4H271.869C271.952 22.45 272.319 23.2667 272.969 23.85C273.636 24.4167 274.594 24.7 275.844 24.7C276.577 24.7 277.244 24.6333 277.844 24.5C278.461 24.3667 278.944 24.225 279.294 24.075L279.694 26.55C279.527 26.6333 279.294 26.725 278.994 26.825C278.711 26.9083 278.377 26.9833 277.994 27.05C277.627 27.1333 277.227 27.2 276.794 27.25C276.361 27.3 275.919 27.325 275.469 27.325C274.319 27.325 273.319 27.1583 272.469 26.825C271.619 26.475 270.919 26 270.369 25.4C269.819 24.7833 269.411 24.0667 269.144 23.25C268.877 22.4167 268.744 21.5083 268.744 20.525ZM277.519 19.175C277.519 18.7583 277.461 18.3667 277.344 18C277.227 17.6167 277.052 17.2917 276.819 17.025C276.602 16.7417 276.327 16.525 275.994 16.375C275.677 16.2083 275.294 16.125 274.844 16.125C274.377 16.125 273.969 16.2167 273.619 16.4C273.269 16.5667 272.969 16.7917 272.719 17.075C272.486 17.3583 272.302 17.6833 272.169 18.05C272.036 18.4167 271.944 18.7917 271.894 19.175H277.519ZM291.201 16.65C290.951 16.5667 290.601 16.4833 290.151 16.4C289.718 16.3 289.21 16.25 288.626 16.25C288.293 16.25 287.935 16.2833 287.551 16.35C287.185 16.4167 286.926 16.475 286.776 16.525V27H283.751V14.55C284.335 14.3333 285.06 14.1333 285.926 13.95C286.81 13.75 287.785 13.65 288.851 13.65C289.051 13.65 289.285 13.6667 289.551 13.7C289.818 13.7167 290.085 13.75 290.351 13.8C290.618 13.8333 290.876 13.8833 291.126 13.95C291.376 14 291.576 14.05 291.726 14.1L291.201 16.65Z" fill="white"/>
</svg>
