<svg width="78" height="78" viewBox="0 0 78 78" fill="none" xmlns="http://www.w3.org/2000/svg">
<circle cx="39" cy="39" r="39" fill="#16BC03"/>
<path d="M29.68 38.76H33.4C34.1733 38.76 34.96 38.7067 35.76 38.6C36.5867 38.4667 37.36 38.2667 38.08 38C38.8 37.7067 39.4267 37.32 39.96 36.84C40.52 36.3333 40.92 35.7067 41.16 34.96H29.68V32.08H41.24C41.1067 31.2533 40.8667 30.5867 40.52 30.08C40.2 29.5733 39.7867 29.1867 39.28 28.92C38.8 28.6267 38.24 28.4267 37.6 28.32C36.9867 28.2133 36.3333 28.16 35.64 28.16H29.68V25.28H49L48.44 28.16H42.76C43.3733 28.64 43.8533 29.2133 44.2 29.88C44.5467 30.5467 44.7867 31.28 44.92 32.08H47.68L47.12 34.96H44.8C44.5867 36.1333 44.1467 37.1333 43.48 37.96C42.84 38.76 42.04 39.4133 41.08 39.92C40.12 40.4267 39.04 40.8133 37.84 41.08C36.6667 41.3467 35.4533 41.52 34.2 41.6C34.8667 42.1867 35.6133 42.92 36.44 43.8C37.2933 44.68 38.16 45.64 39.04 46.68C39.9467 47.6933 40.8267 48.7467 41.68 49.84C42.5333 50.9333 43.2933 51.9867 43.96 53H39.6C38.8533 51.96 38.04 50.92 37.16 49.88C36.3067 48.8133 35.44 47.8 34.56 46.84C33.68 45.8533 32.8133 44.9467 31.96 44.12C31.1067 43.2667 30.3467 42.5333 29.68 41.92V38.76Z" fill="white"/>
</svg>
